<svg xmlns="http://www.w3.org/2000/svg" viewBox="0 0 380.09 244.07"><defs><style>.cls-1{fill:#c34693;}.cls-1,.cls-2,.cls-3{fill-rule:evenodd;}.cls-2{fill:#f087b6;}.cls-3,.cls-4{fill:#401c68;}</style></defs><g id="Layer_2" data-name="Layer 2"><g id="Layer_1-2" data-name="Layer 1"><path class="cls-1" d="M101.06.1a188.88,188.88,0,0,1,19.8,8,2,2,0,0,1,.87,2.65L106.42,43.13a118,118,0,0,0-12.1-3.94l-5.84-2.35a3.11,3.11,0,0,0-1.67-.19L98.59,1.41A2,2,0,0,1,101.06.1ZM100.31,4c-5.24,2.86,1.81,11.17,5.08,10.11S105.23,1.28,100.31,4Zm2.34,13.62c.56-3-6-4.13-6.24-1.68S102.08,20.57,102.65,17.58Z"/><path class="cls-2" d="M112.89,51.17c-2.29-1.24-4.61-2.41-7-3.54l.14-.35a3.13,3.13,0,0,0-1.74-4.07L88.48,36.84a3.12,3.12,0,0,0-3.6.93c4.24,2.3,10.75,6.43,10.75,6.43s-4.37-2-11.36-5.28c-2.47-.8-5-1.55-7.48-2.25a7.36,7.36,0,0,0-9.21,5.7c-.27,1.39-.53,2.79-.78,4.18a18.31,18.31,0,0,1,7.06.5c2.53-1.34,6.5-2,11.91-2.1a74.18,74.18,0,0,1,10.74.47A12.54,12.54,0,0,1,102,47.26,8.11,8.11,0,0,1,104.77,51a25.37,25.37,0,0,1,.9,7.68l.21,17.63c3.22-4.89,6.55-9.73,9.73-14.64a7.37,7.37,0,0,0-2.72-10.49Zm-31.58-.41a33.54,33.54,0,0,1,5-.36q8.49-.1,10.62,1.48c1.42,1.06,2.15,3.4,2.19,7l.1,7.68a8.74,8.74,0,0,0-4.85-3.27c-.46-.13-1-.25-1.51-.36C89.49,58.35,86,54.11,81.31,50.76Zm-15.1-.89.48-2.68a17.73,17.73,0,0,1,6.42.31l-.07,0c-2.44,1.65-3.64,4.37-3.59,8.18v1L76,56.67c0-2.38.72-4,2-4.87a7,7,0,0,1,2.38-.88A49,49,0,0,1,92,62.82a44,44,0,0,0-6.87-.37,51.68,51.68,0,0,0-8.94.68,9.9,9.9,0,0,0-4.7,2,8.81,8.81,0,0,0-2.67,4.3,25.75,25.75,0,0,0-.74,7.37q.11,8.13,3.68,11.06c2.39,2,7.08,2.91,14,2.82A26.83,26.83,0,0,0,95,89.3a8.77,8.77,0,0,0,4.79-4.1l.05.76-.1.17h0l-.27.46-.07.12-.28.48h0l-.29.5,0,0,0,0-.58,1v0l-.28.5,0,0,0,0-.28.5h0c-.1.18-.19.36-.29.53v0c-.39.7-.77,1.41-1.14,2.12v0c-.09.16-.17.33-.25.49l0,0v0h0l-.27.53h0l-.27.54h0L95,94.8h0l-.27.55a7.35,7.35,0,0,1-9.35,3.57l-21.66-8.7a7.34,7.34,0,0,1-4.28-9l.18-.57,0-.07.15-.49,0-.15.12-.4.07-.22.09-.31.07-.25.11-.34.06-.22.12-.44,0-.1c0-.18.11-.36.16-.54v0h0l.15-.55.06-.22.09-.35.06-.2.11-.4,0-.15.11-.41,0-.2.1-.35,0-.22.11-.43,0-.12c.05-.19.09-.38.14-.58h0c.09-.39.18-.78.28-1.17l0-.09.1-.45,0-.19.09-.41,0-.16L62.4,70l.05-.24.08-.35,0-.2c.09-.38.17-.75.25-1.12V68l.12-.57h0l.13-.6v0l.11-.54,0-.1.11-.51v-.08l.24-1.19v0c.12-.59.23-1.18.34-1.77l0-.07L64,62l0-.17.09-.46v-.08c.08-.4.15-.8.23-1.2v0q.45-2.41.87-4.83v0l.11-.62.08-.44,0-.17.16-.9,0-.33,0-.21.07-.4,0-.14.08-.47v-.07L66,51h0l.1-.53v-.09l.08-.45Zm33,22.93a5.17,5.17,0,0,1,.11,1.07l.06,4.69c0,1.86-1.06,3.31-3.24,4.33s-5.35,1.57-9.49,1.62q-6.93.08-9.24-1.65c-1.56-1.15-2.35-3.47-2.39-7,0-3.08.66-5.16,2.1-6.26S81.38,68,85.68,67.9c4.7-.06,8.14.39,10.3,1.36a7.49,7.49,0,0,1,.85.43c.76,1.07,1.54,2.11,2.33,3.11Zm-37.44.06-.14.58c.05-.19.09-.38.14-.58ZM95,94.8l.27-.54L95,94.8Zm.28-.55.27-.54-.27.54Zm.27-.55.27-.53Z"/><path class="cls-1" d="M59.39,81.18a7.34,7.34,0,0,0,4.28,9l21.66,8.7a7.35,7.35,0,0,0,9.35-3.57C96.24,92.15,98,89,99.79,86l-.05-.76A8.77,8.77,0,0,1,95,89.3a26.83,26.83,0,0,1-9.19,1.36c-7,.09-11.64-.85-14-2.82s-3.61-5.64-3.68-11.06a25.75,25.75,0,0,1,.74-7.37,8.81,8.81,0,0,1,2.67-4.3,9.9,9.9,0,0,1,4.7-2,51.68,51.68,0,0,1,8.94-.68,44,44,0,0,1,6.87.37,49,49,0,0,0-11.5-11.9,7,7,0,0,0-2.38.88c-1.33.86-2,2.49-2,4.87l-6.58.08v-1c0-3.81,1.15-6.53,3.59-8.18l.07,0a17.73,17.73,0,0,0-6.42-.31c-2.06,11.45-3.78,23-7.3,34ZM99.16,72.8a5.17,5.17,0,0,1,.11,1.07l.06,4.69c0,1.86-1.06,3.31-3.24,4.33s-5.35,1.57-9.49,1.62q-6.93.08-9.24-1.65c-1.56-1.15-2.35-3.47-2.39-7,0-3.08.66-5.16,2.1-6.26S81.38,68,85.68,67.9c4.7-.06,8.14.39,10.3,1.36a7.49,7.49,0,0,1,.85.43C97.6,70.76,98.37,71.8,99.16,72.8Z"/><path class="cls-3" d="M0,89.14V30.63H8.31v8A13.4,13.4,0,0,1,15.1,32c3.11-1.42,7.21-2.15,12.33-2.15q11.51,0,16.11,4.65T48.15,50.8V89.14H39.5V52.64q0-9.16-2.69-12.07c-1.81-1.91-5.3-2.88-10.48-2.88-6.12,0-10.58,1.4-13.43,4.19S8.65,49.09,8.65,55.14v34Z"/><path class="cls-3" d="M129.9,16.17V6.38h8.65v9.79Zm0,73V30.63h8.65V89.14Z"/><rect class="cls-4" x="156.52" y="6.38" width="8.65" height="82.76"/><path class="cls-3" d="M181,71.73h8.76v1.32c0,3.61,1.12,6.09,3.34,7.46s6.68,2,13.4,2c7.51,0,12.14-.68,13.88-2.07s2.62-4,2.62-8-.72-6.37-2.14-7.64-5-2.07-10.68-2.38c-2.13-.11-5-.22-8.56-.34-7.85-.21-12.52-.76-14-1.59a10.59,10.59,0,0,1-4.75-5c-.94-2.11-1.42-5.14-1.42-9.11q0-9.72,4.95-13.16t21.78-3.46c8.71,0,14.59,1.1,17.69,3.29s4.64,6,4.64,11.51h-8.65v-.55a5.37,5.37,0,0,0-3.36-5.37q-3.37-1.47-13.37-1.48c-6.47,0-10.57.59-12.35,1.79s-2.68,3.66-2.68,7.43a16.06,16.06,0,0,0,.5,4.82,3.86,3.86,0,0,0,1.78,2.11Q195,54.78,203.93,55c1.52,0,2.7.08,3.51.12,4.9.19,8.73.43,11.52.75a20.27,20.27,0,0,1,6,1.31,11,11,0,0,1,5.54,5.11c1.08,2.24,1.63,5.46,1.63,9.69s-.53,7.57-1.61,9.79a14.72,14.72,0,0,1-5.79,5.9,15,15,0,0,1-6.17,1.75,101.47,101.47,0,0,1-11.91.53Q191,89.94,186,86.35c-3.35-2.41-5-6.75-5-13.07Z"/><path class="cls-3" d="M277.2,80.43l-15-12.49q-3.71.06-5.16,1.78t-1.44,6.56a21.89,21.89,0,0,0,.37,4.86,4,4,0,0,0,1.24,2.18,6,6,0,0,0,3,1.18,53,53,0,0,0,7.43.34,16.4,16.4,0,0,0,6.66-1,5,5,0,0,0,2.84-3.38Zm3.68,3.13a8,8,0,0,1-4.53,4.36q-3.14,1.23-11.05,1.23a29.62,29.62,0,0,1-8.13-.79,8.5,8.5,0,0,1-4.12-2.65,8.3,8.3,0,0,1-1.56-3.58,31.91,31.91,0,0,1-.49-6.27c0-3.46.57-6,1.69-7.71a8.42,8.42,0,0,1,5.62-3.29,8.12,8.12,0,0,1-2.82-3.46,13.09,13.09,0,0,1-.91-5.18c0-3.28.85-5.55,2.56-6.84s4.9-1.92,9.55-1.92q6.57,0,9.44,2.07T279,56.34v3.41h-4.53V56.64c0-2-.41-3.25-1.23-3.93s-3-1-6.55-1c-3.4,0-5.48.3-6.26.91s-1.16,1.8-1.16,3.62c0,2.58,1.28,4.94,3.82,7.07l.3.24,14.66,12.25V70.15h4.52v6a12,12,0,0,1-.08,1.38c-.06.54-.14,1.13-.27,1.81l7.67,6.38-2.62,3.18Z"/><path class="cls-1" d="M188.36,203.91a13.89,13.89,0,0,1,5.52,1.11,14.46,14.46,0,0,1,4.51,3,14,14,0,0,1,4.14,10,13.53,13.53,0,0,1-1.11,5.46,14.44,14.44,0,0,1-3,4.46,14.18,14.18,0,0,1-4.51,3,13.89,13.89,0,0,1-5.52,1.11A13.53,13.53,0,0,1,182.9,231a14.41,14.41,0,0,1-4.46-3,14.59,14.59,0,0,1-3-4.46,13.53,13.53,0,0,1-1.11-5.46V192h4.59v15.63a15.35,15.35,0,0,1,4.33-2.68,13.29,13.29,0,0,1,5.13-1Zm0,4.65a9.28,9.28,0,0,0-3.67.73,8.8,8.8,0,0,0-3,2,10,10,0,0,0-2,3,9.27,9.27,0,0,0,0,7.35,9.57,9.57,0,0,0,2,3,9.41,9.41,0,0,0,3,2,9.14,9.14,0,0,0,3.67.76,9.25,9.25,0,0,0,3.73-.76,9.41,9.41,0,0,0,3-2,9,9,0,0,0,2-3,9.62,9.62,0,0,0,0-7.35,9.42,9.42,0,0,0-2-3,8.8,8.8,0,0,0-3-2,9.4,9.4,0,0,0-3.73-.73ZM218.31,232a10.27,10.27,0,0,1-4.19-.86,11.05,11.05,0,0,1-5.76-5.76,10.4,10.4,0,0,1-.86-4.19V204.4h4.65v16.75a6.21,6.21,0,0,0,.48,2.44,6.4,6.4,0,0,0,1.33,2,6.18,6.18,0,0,0,1.94,1.32,5.84,5.84,0,0,0,2.41.49,6.24,6.24,0,0,0,4.4-1.81,6.4,6.4,0,0,0,1.33-2,6.21,6.21,0,0,0,.48-2.44V204.4h4.6v28.86a10,10,0,0,1-.92,4.24,10.82,10.82,0,0,1-2.51,3.44,11.82,11.82,0,0,1-3.76,2.29,12.72,12.72,0,0,1-4.65.84v-4.59a8.26,8.26,0,0,0,2.84-.49,7,7,0,0,0,2.3-1.35,6.75,6.75,0,0,0,1.54-2,5.18,5.18,0,0,0,.56-2.41V230a11.58,11.58,0,0,1-2.91,1.43,10.65,10.65,0,0,1-3.3.51ZM246.47,192H271v4.76H251.17v12.59h17.3v4.76h-17.3v12.64H271v4.71H246.47V192Zm29.3-.11h4.59v32.54a2.57,2.57,0,0,0,1.16,2.11,4.6,4.6,0,0,0,2.79.86V232a9.12,9.12,0,0,1-3.33-.6,8.75,8.75,0,0,1-2.7-1.62,7.7,7.7,0,0,1-1.84-2.4,6.61,6.61,0,0,1-.67-3V191.91Zm33,23.84a10.51,10.51,0,0,0-1.27-2.84,9.17,9.17,0,0,0-2-2.27,9.61,9.61,0,0,0-2.68-1.49,9.52,9.52,0,0,0-6.32,0,9.35,9.35,0,0,0-4.73,3.76,9.36,9.36,0,0,0-1.25,2.84Zm-9.13,16.38a13.67,13.67,0,0,1-5.49-1.11,14.32,14.32,0,0,1-7.51-7.49,13.46,13.46,0,0,1-1.11-5.46,14.07,14.07,0,0,1,4.14-10,14.56,14.56,0,0,1,4.48-3,14.13,14.13,0,0,1,11,0,14.19,14.19,0,0,1,4.45,3,14.21,14.21,0,0,1,4.11,10v.81a13.59,13.59,0,0,1-.11,1.46H290.52a9,9,0,0,0,1.25,2.87,10.31,10.31,0,0,0,2.05,2.27A9.06,9.06,0,0,0,296.5,227a9.16,9.16,0,0,0,3.16.54,5.55,5.55,0,0,0,2.59-.67,10.71,10.71,0,0,0,2.49-1.82l3.24,3.25a15.31,15.31,0,0,1-3.92,2.78,9.86,9.86,0,0,1-4.4,1.06Zm33.46-28.27a13.83,13.83,0,0,1,5.48,1.1,14.49,14.49,0,0,1,4.49,3,14.07,14.07,0,0,1,4.14,10v13.52h-4.65V218a9.46,9.46,0,0,0-.73-3.67,9.81,9.81,0,0,0-2-3,9.3,9.3,0,0,0-3-2,9.65,9.65,0,0,0-3.73-.73,9.51,9.51,0,0,0-3.68.73,9.3,9.3,0,0,0-3,2,10,10,0,0,0-2,3,9,9,0,0,0-.76,3.67v13.52h-4.6V218a14.07,14.07,0,0,1,4.14-10,14.59,14.59,0,0,1,4.46-3,13.62,13.62,0,0,1,5.46-1.1Zm32.81-.06a13.87,13.87,0,0,1,5.51,1.11,14.09,14.09,0,0,1,4.51,3,14.3,14.3,0,0,1,3,4.48,13.67,13.67,0,0,1,1.11,5.49v13.51h-4.7v-3a14.51,14.51,0,0,1-4.3,2.62,14,14,0,0,1-5.16.94,13.62,13.62,0,0,1-5.46-1.1,14.71,14.71,0,0,1-4.46-3,14.09,14.09,0,0,1-3-4.46,14.13,14.13,0,0,1,0-11,14.32,14.32,0,0,1,7.49-7.51,13.46,13.46,0,0,1,5.46-1.11Zm0,4.65a9.33,9.33,0,0,0-3.68.73,9.15,9.15,0,0,0-3,2,10,10,0,0,0-2,3,9.29,9.29,0,0,0,0,7.36,9.44,9.44,0,0,0,5,5,9,9,0,0,0,3.68.76,9.15,9.15,0,0,0,3.73-.76,9.78,9.78,0,0,0,3-2,9.57,9.57,0,0,0,2-10.36,9.76,9.76,0,0,0-2-3,9.15,9.15,0,0,0-3-2A9.47,9.47,0,0,0,365.93,208.45Z"/><rect class="cls-4" x="46.71" y="99.15" width="8.57" height="81.97"/><path class="cls-3" d="M111,166.35v-6.11c0-2.76-1.41-4.77-4.21-6.05s-7.27-1.94-13.4-1.94c-5.6,0-9.35.72-11.23,2.13s-2.84,4.11-2.84,8.11c0,4.57,1,7.59,3,9.12s6,2.29,12,2.29c5.4,0,9.51-.66,12.39-2s4.28-3.18,4.28-5.6Zm.43,8.66a11.46,11.46,0,0,1-6.29,5.26c-2.9,1.09-6.88,1.63-12,1.63-9.06,0-15.15-1.29-18.23-3.89s-4.62-7.4-4.62-14.46A34,34,0,0,1,71.33,154a11.5,11.5,0,0,1,3.55-5.56A13,13,0,0,1,81,145.9a67.21,67.21,0,0,1,11.65-.75c5.24,0,9.26.43,12,1.3a11.31,11.31,0,0,1,6.26,4.32v-10c0-4.74-.92-7.8-2.74-9.21s-6.45-2.08-13.81-2.08q-8,0-10.7,1.69C82,132.28,81,134.38,81,137.48H72.4v-1.33q0-7.44,4.81-10.6c3.21-2.12,8.76-3.18,16.61-3.18a96.6,96.6,0,0,1,14,.77,16.48,16.48,0,0,1,7.11,2.48,10.66,10.66,0,0,1,3.57,4.91c.69,1.93,1,5.28,1,10v40.58h-7.8Z"/><path class="cls-3" d="M134.64,163.87h8.68v1.31c0,3.57,1.11,6,3.31,7.39s6.61,2,13.26,2q11.18,0,13.76-2.05t2.59-7.88c0-3.77-.71-6.31-2.12-7.57s-4.94-2.05-10.58-2.35c-2.11-.11-4.92-.22-8.48-.34-7.77-.2-12.4-.75-13.86-1.57a10.53,10.53,0,0,1-4.7-5q-1.41-3.12-1.41-9,0-9.63,4.9-13t21.58-3.42q12.93,0,17.51,3.25t4.6,11.41h-8.56v-.54a5.31,5.31,0,0,0-3.33-5.32q-3.36-1.47-13.25-1.47c-6.41,0-10.47.58-12.23,1.77s-2.65,3.63-2.65,7.36a16.22,16.22,0,0,0,.49,4.78,3.77,3.77,0,0,0,1.76,2.08q2.59,1.38,11.47,1.6l3.47.11q7.28.28,11.41.76a20,20,0,0,1,5.9,1.29,10.87,10.87,0,0,1,5.49,5.06q1.6,3.31,1.61,9.6c0,4.25-.52,7.5-1.59,9.7a14.58,14.58,0,0,1-5.74,5.84,14.94,14.94,0,0,1-6.1,1.73,100.12,100.12,0,0,1-11.8.52q-15.42,0-20.41-3.55c-3.33-2.38-5-6.69-5-12.94Z"/><path class="cls-3" d="M274,146.5h32.81v-2.25q0-8.15-2.92-11.07t-11.55-2.91h-4c-5.73,0-9.54,1-11.46,2.91S274,138.82,274,144.25v2.25Zm14.43,35.4q-13,0-18.17-5.07T265.11,159V145.3q0-12.8,5.15-17.85t18.07-5.08h4q13,0,18.19,5.08t5.18,17.85v8.76l-41.71.05c0,.58-.06,1.24-.08,1.94s0,1.71,0,3q0,9,2.88,12t11.55,3.07h4c5.16,0,8.75-.76,10.78-2.24s3.2-4.08,3.52-7.8h9c-.43,6.3-2.46,10.82-6.07,13.62s-9.3,4.19-17.1,4.19Z"/><path class="cls-3" d="M329,163.87h8.68v1.31c0,3.57,1.11,6,3.31,7.39s6.61,2,13.26,2q11.16,0,13.76-2.05t2.59-7.88c0-3.77-.71-6.31-2.12-7.57s-4.94-2.05-10.58-2.35c-2.11-.11-4.92-.22-8.48-.34-7.78-.2-12.4-.75-13.86-1.57a10.53,10.53,0,0,1-4.7-5q-1.41-3.12-1.41-9,0-9.63,4.9-13T356,122.37q12.93,0,17.51,3.25t4.6,11.41h-8.57v-.54a5.32,5.32,0,0,0-3.32-5.32q-3.36-1.47-13.25-1.47c-6.41,0-10.47.58-12.23,1.77s-2.65,3.63-2.65,7.36a16.22,16.22,0,0,0,.49,4.78,3.77,3.77,0,0,0,1.76,2.08q2.6,1.38,11.46,1.6l3.48.11q7.28.28,11.41.76a20.05,20.05,0,0,1,5.9,1.29,10.87,10.87,0,0,1,5.49,5.06q1.6,3.31,1.61,9.6c0,4.25-.53,7.5-1.6,9.7a14.48,14.48,0,0,1-5.73,5.84,15,15,0,0,1-6.1,1.73,100.19,100.19,0,0,1-11.81.52q-15.41,0-20.4-3.55c-3.33-2.38-5-6.69-5-12.94Z"/><path class="cls-3" d="M202.51,181.9v-82h8.23v31.94a13.26,13.26,0,0,1,6.73-6.59c3.08-1.41,7.14-2.13,12.22-2.13q11.38,0,15.95,4.61t4.57,16.16v38h-8.57V145.75q0-9.08-2.67-11.95t-10.37-2.86c-6.07,0-10.49,1.37-13.31,4.14s-4.21,7.12-4.21,13.15V181.9Z"/></g></g></svg>