<svg xmlns="http://www.w3.org/2000/svg" width="22.619" height="22.619" viewBox="0 0 22.619 22.619">
  <g id="_2504645431599781003" data-name="2504645431599781003" transform="translate(-8.084 -7.794)">
    <path id="Path_14" data-name="Path 14" d="M25.344,11.959a1.33,1.33,0,1,0,1.33,1.33A1.33,1.33,0,0,0,25.344,11.959Zm-5.912,1.705a5.586,5.586,0,1,0,5.586,5.586A5.592,5.592,0,0,0,19.432,13.664Zm0,9.164A3.578,3.578,0,1,1,23.01,19.25,3.582,3.582,0,0,1,19.432,22.828ZM30.7,14.607A6.813,6.813,0,0,0,23.89,7.794H14.9a6.813,6.813,0,0,0-6.813,6.813V23.6A6.813,6.813,0,0,0,14.9,30.413H23.89A6.813,6.813,0,0,0,30.7,23.6ZM28.569,23.6a4.679,4.679,0,0,1-4.679,4.679H14.9A4.679,4.679,0,0,1,10.218,23.6V14.607A4.679,4.679,0,0,1,14.9,9.928H23.89a4.679,4.679,0,0,1,4.679,4.679Z" fill="#fc817b"/>
  </g>
</svg>
