<?xml version="1.0" encoding="iso-8859-1"?>
<!-- Generator: Adobe Illustrator 19.0.0, SVG Export Plug-In . SVG Version: 6.00 Build 0)  -->
<svg version="1.1" id="Capa_1" xmlns="http://www.w3.org/2000/svg" xmlns:xlink="http://www.w3.org/1999/xlink" x="0px" y="0px"
	 viewBox="0 0 512 512" style="enable-background:new 0 0 512 512;" xml:space="preserve">
<g>
	<g>
		<path d="M497.506,69.588l-15.192-46.324c-5.51-16.796-23.25-26.562-40.381-22.246L247.953,48.881l20.396,62.193l-124.601,40.865
			c-6.234-8.925-17.571-13.499-28.597-10.726l-59.983,15.076l19.585,59.716l57.305-23.956c10.433-4.361,16.787-14.794,16.476-25.648
			l124.563-40.851l20.397,62.193l184.626-76.305C494.503,104.774,503.018,86.391,497.506,69.588z M126.183,177.993L84.09,195.589
			l-9.352-28.512l44.126-11.09c5.891-1.475,11.99,1.883,13.883,7.655C134.625,169.366,131.742,175.671,126.183,177.993z
			 M472.34,97.342l-169.488,70.049L267.545,59.737L445.6,15.804l0.041-0.01c9.418-2.382,19.17,2.987,22.197,12.218l15.192,46.323
			C486.057,83.567,481.379,93.665,472.34,97.342z"/>
	</g>
</g>
<g>
	<g>
		<path d="M481.984,297.584c-11.553-11.935-27.065-18.507-43.678-18.507h-18.357V208.37h-87.384v70.707h-18.357
			c-16.611,0-32.123,6.573-43.677,18.506c-11.57,11.951-17.645,27.693-17.107,44.329c0.626,19.323,27.626,158.032,28.776,163.928
			l1.2,6.16h185.712l1.2-6.16c1.15-5.896,28.15-144.605,28.776-163.927C499.628,325.277,493.553,309.534,481.984,297.584z
			 M456.558,496.766H295.955c-7.501-38.722-22.805-119.671-26.498-147.483h213.598C479.363,377.097,464.059,458.045,456.558,496.766
			z M269.003,334.049c1.234-9.703,5.529-18.699,12.472-25.87c8.658-8.943,20.284-13.868,32.732-13.868h25.974h7.617h28.804v-15.234
			h-28.804v-55.473h56.916v19.263h-28.804v15.234h28.804v36.21h33.591c12.45,0,24.075,4.926,32.733,13.869
			c6.942,7.171,11.238,16.167,12.472,25.869H269.003z"/>
	</g>
</g>
<g>
	<g>
		<path d="M110.297,401.971l-40.388-40.387l-40.387,40.387c-22.269,22.27-22.269,58.504,0,80.774
			c11.135,11.134,25.761,16.702,40.387,16.702s29.253-5.568,40.388-16.702C132.566,460.474,132.566,424.241,110.297,401.971z
			 M99.523,471.971c-16.328,16.331-42.899,16.331-59.229,0c-16.33-16.329-16.33-42.899,0-59.229l29.614-29.615l29.615,29.614
			C115.853,429.072,115.853,455.642,99.523,471.971z"/>
	</g>
</g>
<g>
	<g>
		<path d="M90.516,277.415l-24.392-24.391l-24.392,24.391c-13.449,13.45-13.449,35.334,0,48.783
			c6.726,6.724,15.559,10.087,24.392,10.087s17.666-3.363,24.392-10.087C103.964,312.749,103.964,290.865,90.516,277.415z
			 M79.742,315.425c-3.637,3.638-8.474,5.642-13.618,5.642c-5.144,0-9.981-2.004-13.618-5.642c-7.509-7.508-7.509-19.728,0-27.237
			l13.618-13.619l13.618,13.619C87.253,295.697,87.253,307.917,79.742,315.425z"/>
	</g>
</g>
<g>
	<g>
		<rect x="338.174" y="388.101" width="15.234" height="15.234"/>
	</g>
</g>
<g>
	<g>
		<rect x="368.642" y="388.101" width="15.234" height="15.234"/>
	</g>
</g>
<g>
	<g>
		<rect x="399.11" y="388.101" width="15.234" height="15.234"/>
	</g>
</g>
<g>
</g>
<g>
</g>
<g>
</g>
<g>
</g>
<g>
</g>
<g>
</g>
<g>
</g>
<g>
</g>
<g>
</g>
<g>
</g>
<g>
</g>
<g>
</g>
<g>
</g>
<g>
</g>
<g>
</g>
</svg>
