<svg height="512pt" viewBox="0 -51 512 512" width="512pt" xmlns="http://www.w3.org/2000/svg"><path d="m502 0h-492c-5.523438 0-10 4.476562-10 10v390c0 5.523438 4.476562 10 10 10h70c5.523438 0 10-4.476562 10-10v-30h332v30c0 5.523438 4.476562 10 10 10h70c5.523438 0 10-4.476562 10-10v-390c0-5.523438-4.476562-10-10-10zm-10 20v330h-472v-60h20v30c0 5.523438 4.476562 10 10 10h291c5.523438 0 10-4.476562 10-10v-270c0-5.523438-4.476562-10-10-10h-291c-5.523438 0-10 4.476562-10 10v20h-20v-50zm-472 70h20v20h-20zm70.5-30 27 36c1.890625 2.519531 4.851562 4 8 4h140c3.148438 0 6.109375-1.480469 8-4l27-36h30.5v250h-271v-250zm25 0h160l-15 20h-130zm-95.5 190h20v20h-20zm20-120v100h-20v-100zm30 260h-50v-20h50zm422 0h-50v-20h50zm0 0"/><path d="m421.230469 150c27.570312 0 50-22.429688 50-50s-22.429688-50-50-50c-27.570313 0-50 22.429688-50 50s22.429687 50 50 50zm0-80c16.542969 0 30 13.457031 30 30s-13.457031 30-30 30-30-13.457031-30-30 13.457031-30 30-30zm0 0"/><path d="m381.230469 270c5.519531 0 10-4.480469 10-10s-4.480469-10-10-10-10 4.480469-10 10 4.480469 10 10 10zm0 0"/><path d="m381.230469 190c5.519531 0 10-4.480469 10-10s-4.480469-10-10-10-10 4.480469-10 10 4.480469 10 10 10zm0 0"/><path d="m381.230469 230c5.519531 0 10-4.480469 10-10s-4.480469-10-10-10-10 4.480469-10 10 4.480469 10 10 10zm0 0"/><path d="m381.230469 310c5.519531 0 10-4.480469 10-10s-4.480469-10-10-10-10 4.480469-10 10 4.480469 10 10 10zm0 0"/><path d="m421.230469 210c-5.519531 0-10 4.480469-10 10s4.480469 10 10 10 10-4.480469 10-10-4.480469-10-10-10zm0 0"/><path d="m421.230469 250c-5.519531 0-10 4.480469-10 10s4.480469 10 10 10 10-4.480469 10-10-4.480469-10-10-10zm0 0"/><path d="m421.230469 290c-5.519531 0-10 4.480469-10 10s4.480469 10 10 10 10-4.480469 10-10-4.480469-10-10-10zm0 0"/><path d="m421.230469 170c-5.519531 0-10 4.480469-10 10s4.480469 10 10 10 10-4.480469 10-10-4.480469-10-10-10zm0 0"/><path d="m461.230469 250c-5.519531 0-10 4.480469-10 10s4.480469 10 10 10 10-4.480469 10-10-4.480469-10-10-10zm0 0"/><path d="m461.230469 210c-5.519531 0-10 4.480469-10 10s4.480469 10 10 10 10-4.480469 10-10-4.480469-10-10-10zm0 0"/><path d="m461.230469 170c-5.519531 0-10 4.480469-10 10s4.480469 10 10 10 10-4.480469 10-10-4.480469-10-10-10zm0 0"/><path d="m461.230469 290c-5.519531 0-10 4.480469-10 10s4.480469 10 10 10 10-4.480469 10-10-4.480469-10-10-10zm0 0"/><path d="m195.5 190c5.511719 0 10-4.488281 10-10s-4.488281-10-10-10-10 4.488281-10 10 4.488281 10 10 10zm0 0"/><path d="m195.5 150c5.511719 0 10-4.488281 10-10v-10c0-5.511719-4.488281-10-10-10s-10 4.488281-10 10v10c0 5.511719 4.488281 10 10 10zm0 0"/><path d="m151.578125 149.609375c.652344.128906 1.3125.199219 1.972656.199219 4.738281 0 8.859375-3.378906 9.789063-8.039063l1.96875-9.808593c1.082031-5.410157-2.4375-10.691407-7.847656-11.773438-.652344-.128906-1.3125-.1875-1.972657-.1875-4.75 0-8.867187 3.378906-9.796875 8.039062l-1.960937 9.800782c-1.082031 5.410156 2.441406 10.6875 7.847656 11.769531zm0 0"/><path d="m143.730469 188.828125c.648437.132813 1.320312.199219 1.980469.199219 4.738281 0 8.859374-3.378906 9.789062-8.039063 1.078125-5.410156-2.441406-10.6875-7.839844-11.769531-.648437-.128906-1.320312-.191406-1.96875-.191406-4.75 0-8.871094 3.382812-9.800781 8.042968-.53125 2.617188 0 5.277344 1.480469 7.5 1.480468 2.230469 3.738281 3.738282 6.359375 4.257813zm0 0"/><path d="m243.339844 169.21875c-2.609375.53125-4.871094 2.042969-6.351563 4.261719-1.488281 2.21875-2.007812 4.890625-1.488281 7.511719.929688 4.65625 5.050781 8.039062 9.789062 8.039062.660157 0 1.332032-.070312 1.980469-.199219 5.402344-1.082031 8.921875-6.359375 7.839844-11.761719-.929687-4.660156-5.050781-8.039062-9.800781-8.039062-.648438-.003906-1.320313.058594-1.96875.1875zm0 0"/><path d="m227.648438 141.769531c.941406 4.652344 5.0625 8.039063 9.800781 8.039063.660156 0 1.320312-.066406 1.972656-.199219 2.617187-.519531 4.878906-2.039063 6.359375-4.257813 1.480469-2.222656 2.007812-4.890624 1.488281-7.511718l-1.96875-9.800782c-.929687-4.660156-5.039062-8.039062-9.789062-8.039062-.660157 0-1.320313.058594-1.972657.1875-2.617187.53125-4.878906 2.042969-6.359374 4.261719-1.480469 2.222656-2.007813 4.890625-1.480469 7.511719zm0 0"/><path d="m136.632812 284.527344c5.023438 4.21875 11.710938 6.324218 20.066407 6.324218s15.046875-2.125 20.070312-6.382812c5.019531-4.253906 7.53125-10.902344 7.53125-19.949219v-53.820312c0-1.535157-.730469-2.683594-2.1875-3.453125-1.457031-.765625-3.21875-1.148438-5.289062-1.148438-2.070313 0-3.835938.386719-5.289063 1.148438-1.457031.769531-2.183594 1.917968-2.183594 3.453125v53.820312c0 8.816407-4.21875 13.222657-12.652343 13.222657-8.433594 0-12.648438-4.40625-12.648438-13.222657v-53.820312c0-1.535157-.730469-2.683594-2.1875-3.453125-1.457031-.765625-3.21875-1.148438-5.289062-1.148438-2.070313 0-3.835938.386719-5.289063 1.148438-1.457031.769531-2.183594 1.917968-2.183594 3.453125v53.820312c0 9.125 2.507813 15.792969 7.53125 20.007813zm0 0"/><path d="m196.488281 212.308594c0 .15625.078125.539062.230469 1.148437l22.195312 72.335938c1.148438 3.375 4.371094 5.0625 9.660157 5.0625 2.300781 0 4.371093-.445313 6.210937-1.324219s2.988282-2.128906 3.449219-3.738281l22.078125-72.332031c.152344-.613282.230469-.996094.230469-1.152344 0-1.683594-1.035157-3.144532-3.105469-4.367188-2.070312-1.226562-4.179688-1.84375-6.324219-1.84375-2.835937 0-4.523437 1-5.058593 2.992188l-17.480469 62.328125-17.59375-62.328125c-.539063-1.992188-2.226563-2.992188-5.0625-2.992188-2.226563 0-4.351563.597656-6.382813 1.785156-2.027344 1.1875-3.046875 2.664063-3.046875 4.425782zm0 0"/></svg>